<?xml version="1.0"?>
<svg xmlns="http://www.w3.org/2000/svg" xmlns:xlink="http://www.w3.org/1999/xlink" xmlns:svgjs="http://svgjs.com/svgjs" version="1.1" width="512" height="512" x="0" y="0" viewBox="0 0 504 504" style="enable-background:new 0 0 512 512" xml:space="preserve" class=""><g>
<circle xmlns="http://www.w3.org/2000/svg" style="" cx="252" cy="252" r="252" fill="#4f3a4b" data-original="#90dfaa" class=""/>
<polygon xmlns="http://www.w3.org/2000/svg" style="" points="183.7,376 75.4,338.2 149.7,179.5 211.4,190.7 " fill="#ffffff" data-original="#ffffff" class=""/>
<polygon xmlns="http://www.w3.org/2000/svg" style="" points="183.7,376 298.1,338 276.5,179.5 211.4,190.7 " fill="#e6e9ee" data-original="#e6e9ee" class=""/>
<polygon xmlns="http://www.w3.org/2000/svg" style="" points="434.8,376 298.1,338 276.5,179.5 344.9,190.7 " fill="#ffffff" data-original="#ffffff" class=""/>
<g xmlns="http://www.w3.org/2000/svg">
	<polygon style="" points="326,207.4 279.1,198.8 294.3,310.5 382,334  " fill="#84dbff" data-original="#84dbff" class=""/>
	<polygon style="" points="159.9,201.3 104.9,321.7 187.2,347.2 208.2,210  " fill="#84dbff" data-original="#84dbff" class=""/>
</g>
<polygon xmlns="http://www.w3.org/2000/svg" style="" points="279.1,198.8 208.2,210 187.2,347.2 294.3,310.5 " fill="#54c0eb" data-original="#54c0eb" class=""/>
<path xmlns="http://www.w3.org/2000/svg" style="" d="M331.8,139.9c0,45-81.5,143.3-81.5,143.3s-81.5-98.3-81.5-143.3s36.5-81.5,81.5-81.5  S331.8,94.8,331.8,139.9z" fill="#f75152" data-original="#f1543f" class=""/>
<circle xmlns="http://www.w3.org/2000/svg" style="" cx="250.2" cy="133.2" r="41.3" fill="#ffffff" data-original="#ffffff" class=""/>
<g xmlns="http://www.w3.org/2000/svg">
</g>
<g xmlns="http://www.w3.org/2000/svg">
</g>
<g xmlns="http://www.w3.org/2000/svg">
</g>
<g xmlns="http://www.w3.org/2000/svg">
</g>
<g xmlns="http://www.w3.org/2000/svg">
</g>
<g xmlns="http://www.w3.org/2000/svg">
</g>
<g xmlns="http://www.w3.org/2000/svg">
</g>
<g xmlns="http://www.w3.org/2000/svg">
</g>
<g xmlns="http://www.w3.org/2000/svg">
</g>
<g xmlns="http://www.w3.org/2000/svg">
</g>
<g xmlns="http://www.w3.org/2000/svg">
</g>
<g xmlns="http://www.w3.org/2000/svg">
</g>
<g xmlns="http://www.w3.org/2000/svg">
</g>
<g xmlns="http://www.w3.org/2000/svg">
</g>
<g xmlns="http://www.w3.org/2000/svg">
</g>
</g></svg>
